<svg xmlns="http://www.w3.org/2000/svg" width="134" height="28" viewBox="0 0 134 28">
    <g fill="none" fill-rule="evenodd">
        <g fill="#000">
            <g>
                <path d="M133.417 24.54v1.74c-.167.109-.385.198-.656.267-.27.07-.566.106-.89.106-.367 0-.698-.068-.992-.202-.294-.135-.543-.315-.749-.541-.205-.226-.363-.49-.474-.792-.11-.302-.165-.62-.165-.954 0-.333.055-.652.165-.953.111-.302.269-.566.474-.795.206-.229.455-.41.749-.546.294-.134.625-.202.991-.202.357 0 .673.058.948.175.275.115.513.279.712.49l.405-.406c-.243-.243-.533-.434-.873-.57-.34-.138-.74-.207-1.2-.207-.426 0-.82.076-1.185.227-.365.15-.68.36-.948.627-.267.267-.476.584-.627.951-.152.367-.227.769-.227 1.205 0 .437.074.84.223 1.206.148.367.355.683.62.95.264.267.58.477.947.628.366.15.766.227 1.198.227.388 0 .763-.046 1.125-.139.361-.092.7-.233 1.012-.421v-2.588h-1.92v.518h1.337zm-8.914 2.484h.729v-5.728h-.583v4.879h-.017l-3.335-4.879h-.729v5.728h.584v-4.927h.015l3.336 4.927zm-8.469 0h.583v-5.728h-.583v5.728zm-4.533 0h.583v-5.728h-.583v2.484h-3.125v-2.484h-.583v5.728h.583v-2.71h3.125v2.71zm-8.914-5.21h1.918v-.518h-4.42v.518h1.919v5.21h.583v-5.21zm-5.465 3.552c.151-.367.227-.769.227-1.206 0-.436-.076-.838-.227-1.205-.15-.367-.36-.684-.627-.951-.268-.266-.583-.476-.948-.627-.364-.15-.76-.227-1.186-.227-.427 0-.822.076-1.186.227-.364.15-.68.36-.947.627-.267.267-.477.584-.627.951-.152.367-.227.769-.227 1.205 0 .437.075.84.227 1.206.15.367.36.683.627.95.267.267.583.477.947.628.364.15.76.227 1.186.227.426 0 .822-.076 1.186-.227.365-.15.68-.36.948-.628.267-.267.477-.583.627-.95zm-.389-1.202c0 .335-.054.652-.161.954-.109.301-.265.566-.47.792-.205.226-.455.406-.749.54-.294.135-.625.203-.992.203-.368 0-.697-.068-.992-.202-.294-.135-.544-.315-.748-.541-.206-.226-.363-.49-.47-.792-.108-.302-.162-.62-.162-.954 0-.333.054-.652.162-.953.107-.302.264-.566.47-.795.204-.229.454-.41.748-.546.295-.134.624-.202.992-.202.367 0 .698.068.992.202.294.135.544.317.749.546.205.229.361.493.47.795.107.301.161.62.161.953zm-11.367 2.86h3.255v-.517H85.95v-5.21h-.583v5.727zm-7.784-1.912c-.11-.301-.167-.618-.167-.952 0-.333.054-.65.163-.951.108-.3.264-.566.47-.794.205-.23.454-.41.749-.545.293-.134.627-.202.999-.202.184 0 .356.022.514.065.16.043.306.1.441.17s.253.151.353.243c.1.092.179.183.238.275l.487-.356c-.098-.14-.22-.266-.365-.377-.146-.112-.308-.207-.486-.286-.178-.08-.368-.142-.57-.186-.203-.043-.41-.066-.62-.066-.426 0-.822.076-1.186.227-.364.15-.68.36-.947.627-.268.267-.476.584-.627.951-.152.367-.227.769-.227 1.205 0 .437.074.84.222 1.206.149.367.356.683.62.95.264.267.58.477.947.628.367.15.766.227 1.198.227.26 0 .498-.03.717-.087.218-.058.418-.136.599-.234.18-.098.34-.213.477-.342.138-.13.256-.268.353-.414l-.454-.29c-.2.296-.448.511-.745.647-.297.134-.61.202-.94.202-.367 0-.696-.068-.99-.202-.295-.135-.545-.316-.75-.544-.204-.229-.363-.494-.473-.795zm-19.067-7.83H75.81V0H58.515v17.283zm.691-.69h15.911V.69h-15.91v15.9zm.871-.904H74.18V1.594H60.077v14.094zm8.725-9.217h1.397c.247 0 .468.022.666.067.197.044.366.117.508.217.141.1.25.23.327.387.077.158.114.347.114.569 0 .238-.044.437-.133.598-.088.161-.208.292-.359.39-.151.099-.328.17-.53.215-.201.045-.415.067-.641.067h-.587v1.771h-.762V6.471zM62.57 8.6c0-.343.06-.653.178-.928.12-.276.282-.512.49-.705.208-.193.453-.343.735-.447.283-.105.59-.157.92-.157.137 0 .28.012.43.038.15.027.292.067.43.122.136.054.266.121.386.202.122.08.224.178.309.29l-.58.46c-.114-.154-.261-.265-.442-.336-.182-.07-.36-.106-.533-.106-.222 0-.423.04-.605.122-.182.08-.338.191-.469.332-.131.141-.232.306-.302.496-.071.19-.106.395-.106.617 0 .233.034.447.102.64.07.194.167.36.294.5.127.138.28.246.457.323.178.076.377.115.599.115.23 0 .433-.046.611-.136.177-.09.32-.21.43-.36l.61.43c-.189.237-.421.421-.695.553-.275.13-.595.196-.962.196-.335 0-.642-.056-.923-.167-.28-.11-.521-.265-.723-.465-.202-.2-.359-.437-.472-.714-.113-.276-.169-.58-.169-.915zm7.893-1.466c-.111-.015-.225-.022-.342-.022h-.557v1.227h.533c.124 0 .243-.009.356-.027.113-.017.214-.05.303-.096.089-.047.16-.11.212-.191.051-.08.079-.185.079-.314 0-.125-.028-.227-.08-.306-.052-.078-.121-.14-.208-.184-.086-.045-.186-.074-.296-.087zM59.24 21.296l-2.486 5.728h.89l.576-1.407h2.72l.583 1.407h.906l-2.46-5.728h-.73zm-.737 3.617l1.077-2.686 1.068 2.686h-2.145zm-7.66 2.111h3.361v-.711h-2.559v-5.017h-.801v5.728zm-3.606-3.398c.106-.205.158-.45.158-.736 0-.28-.049-.52-.145-.72-.098-.199-.236-.364-.413-.493-.179-.13-.395-.225-.648-.287-.254-.063-.535-.094-.842-.094h-1.749v5.728h.802v-2.516h.906c.297 0 .574-.031.83-.093.257-.061.478-.157.664-.287.186-.13.332-.296.437-.502zm-.652-.736c0 .173-.032.319-.097.437-.064.12-.156.215-.274.288-.12.073-.261.126-.426.161-.165.035-.344.053-.538.053h-.85v-1.854h.866c.19 0 .364.016.526.045.162.03.301.081.417.154.116.073.208.168.275.283.068.116.101.26.101.433zm-9.314.255c-.062-.105-.093-.236-.093-.393 0-.161.033-.3.101-.416.067-.115.155-.213.263-.291.108-.079.228-.134.36-.17.132-.036.263-.053.393-.053.243 0 .462.05.656.15.194.1.348.227.461.385l.567-.551c-.178-.2-.413-.359-.704-.477-.292-.12-.605-.18-.94-.18-.237 0-.473.032-.708.095-.235.062-.445.16-.631.295-.186.135-.338.305-.454.51-.116.205-.174.45-.174.736 0 .264.044.486.13.663.086.178.2.328.34.45.14.12.3.22.477.298.179.08.36.145.543.2.183.058.358.116.522.173.165.057.31.126.433.207.124.08.223.178.295.295.073.116.11.26.11.432 0 .173-.035.32-.105.442-.07.12-.16.222-.272.303-.11.08-.233.14-.368.178-.135.038-.27.057-.405.057-.264 0-.51-.062-.736-.186-.227-.124-.408-.286-.543-.486l-.623.526c.221.275.5.483.838.623.337.14.687.21 1.048.21.254 0 .5-.034.74-.104.241-.07.453-.178.637-.32.183-.144.33-.323.44-.543.112-.218.167-.476.167-.772 0-.285-.052-.522-.154-.708-.103-.186-.235-.34-.397-.465-.162-.124-.343-.224-.542-.3-.2-.075-.397-.142-.591-.202-.162-.053-.315-.107-.458-.158-.142-.051-.267-.113-.372-.186-.105-.072-.189-.162-.25-.267zm-4.513 2.29c.183-.359.275-.784.275-1.275 0-.507-.092-.94-.275-1.303-.184-.36-.424-.658-.722-.89-.296-.23-.628-.401-.995-.509-.367-.108-.734-.162-1.1-.162h-1.968v5.728h1.967c.367 0 .734-.056 1.1-.173.368-.116.7-.291.996-.526.298-.235.538-.532.722-.89zm-.584-1.275c0 .34-.06.646-.178.915-.118.27-.285.496-.497.679-.214.184-.467.324-.761.42-.295.098-.614.147-.96.147h-1.004v-4.329h1.004c.346 0 .665.047.96.141.294.095.547.233.76.413.213.181.38.407.498.676.119.27.178.583.178.938zm-10.768 2.864h3.36v-.711h-2.558v-5.017h-.802v5.728zm-4.623 0h.802v-5.728h-.802v5.728zm-4.63 0h.81v-5.728h-.81v2.395H9.253v-2.395h-.801v5.728h.801v-2.62h2.898v2.62zM1.023 25.06c-.1-.28-.15-.583-.15-.906 0-.313.051-.608.154-.886.103-.278.248-.523.437-.733.19-.21.417-.376.685-.497.267-.122.568-.182.902-.182.297 0 .574.063.83.19.257.126.455.287.595.48l.632-.484c-.108-.146-.238-.274-.389-.384-.15-.11-.318-.204-.502-.28-.184-.075-.375-.132-.574-.17-.2-.037-.397-.057-.592-.057-.436 0-.841.073-1.214.22-.373.145-.695.348-.968.61-.272.262-.486.577-.639.947-.154.369-.231.778-.231 1.226 0 .442.076.848.227 1.217.15.37.36.688.627.955s.586.474.956.623c.37.148.773.223 1.21.223.507 0 .942-.097 1.304-.288.361-.191.655-.441.882-.748l-.64-.437c-.172.248-.391.437-.656.566-.264.13-.558.194-.882.194-.33 0-.628-.058-.895-.178-.267-.118-.493-.28-.68-.49-.186-.206-.33-.45-.429-.731zm64.353-3.763h-.988l2.146 3.253v2.475h.81V24.55l2.145-3.253h-.931l-1.596 2.589-1.586-2.589z" transform="translate(-573 -8) translate(573 8)"/>
            </g>
        </g>
    </g>
</svg>
