<svg xmlns="http://www.w3.org/2000/svg" width="22" height="20" viewBox="0 0 22 20"><path d="M20.035 6.097v.486c0 2.435-3.376 6.607-9.034 11.166-5.66-4.56-9.034-8.732-9.034-11.166v-.486c0-2.37 1.9-4.295 4.237-4.295 1.424 0 2.743.72 3.528 1.925L11 5.674l1.27-1.946a4.2 4.2 0 0 1 3.528-1.925c2.336 0 4.237 1.926 4.237 4.295M15.798.182c-1.924 0-3.708.95-4.798 2.55-1.1-1.6-2.874-2.55-4.798-2.55-3.22 0-5.84 2.653-5.84 5.915v.486c0 3.126 3.648 7.722 10.275 12.94l.307.245.055.05.054-.05c.035-.032.142-.116.307-.245 6.626-5.22 10.276-9.815 10.276-12.94v-.486c0-3.26-2.62-5.915-5.84-5.915" fill="#000" fill-rule="evenodd"/></svg>
