<svg xmlns="http://www.w3.org/2000/svg" width="27" height="25" viewBox="0 0 27 25" fill-rule="evenodd"><path d="M24.042 8.23v.594C24.042 11.8 19.917 16.9 13 22.47 6.085 16.9 1.96 11.8 1.96 8.824V8.23c0-2.895 2.322-5.25 5.178-5.25 1.74 0 3.352.88 4.312 2.353L13 7.712l1.552-2.38c.96-1.474 2.57-2.353 4.312-2.353 2.855 0 5.178 2.354 5.178 5.25M18.865 1C16.514 1 14.333 2.162 13 4.118 11.67 2.162 9.488 1 7.137 1 3.2 1 .001 4.243.001 8.23v.594c0 3.82 4.46 9.438 12.558 15.817l.375.3L13 25l.066-.06c.043-.04.174-.142.375-.3C21.54 18.262 26 12.645 26 8.824V8.23C26 4.243 22.8 1 18.865 1" fill="#000"/><circle fill="#ec008c" cx="23" cy="4" r="4"/></svg>
