<svg xmlns="http://www.w3.org/2000/svg" width="70" height="20"  viewBox="0 0 70 20"><path d="M69.553 4.075V2.367H59.381V.182H57.56v11.372c0 5.396 2.646 8.264 7.525 8.264 1.993 0 3.746-.444 4.914-1.4v-2.083c-1.065 1.093-2.714 1.776-4.708 1.776-3.918 0-5.911-2.083-5.911-6.83V4.075h10.172zM40.378 2.367l6.151 7.103 6.082-7.103h2.337l-7.319 8.367 7.526 8.674h-2.406l-6.426-7.411-6.254 7.411h-2.337l7.491-8.674-7.251-8.367h2.405zM28.076 3.665c3.643 0 6.254 2.766 6.494 6.318H21.375c.378-3.859 2.955-6.318 6.701-6.318zm.034-1.708c4.811 0 8.454 3.689 8.454 8.606h0v1.127H21.375c.343 3.859 3.333 6.42 7.319 6.42 2.371 0 4.949-.888 6.804-3.142h0v2.391c-2.199 1.81-4.639 2.458-6.873 2.458-5.189 0-9.209-3.517-9.209-8.879 0-5.43 3.539-8.982 8.694-8.982zm-19.588 0c3.918 0 7.767 2.05 7.767 8.299h0v9.153h-1.788v-9.153c0-4.884-3.058-6.591-6.048-6.591-2.818 0-5.292 1.639-6.632 3.996h0v11.748H0V2.367h1.822v2.766c1.684-2.117 4.295-3.176 6.7-3.176z" fill="#fff" fill-rule="evenodd"/></svg>