<svg xmlns="http://www.w3.org/2000/svg" width="22" height="24" fill="#000" fill-rule="evenodd"><path d="M10 22c-2.137 0-4.146-.832-5.657-2.343a8.01 8.01 0 0 1 0-11.314C5.853 6.832 7.862 6 10 6s4.146.832 5.657 2.343a8.01 8.01 0 0 1 0 11.314A7.95 7.95 0 0 1 10 22h0zm12 2l-4.008-4.008c2.744-3.65 2.67-8.748-.24-12.3l1.46-1.46-1.414-1.414-1.46 1.46A9.94 9.94 0 0 0 11 4.063V2h2V0H7v2h2v2.052c-1.9.2-3.758.92-5.318 2.197L2.24 4.808.825 6.222l1.44 1.44a10 10 0 0 0 .662 13.409A9.97 9.97 0 0 0 9.999 24c2.376 0 4.745-.853 6.636-2.535L19.17 24H22zM13.553 9.05l-3.028 3.028C10.357 12.032 10.182 12 10 12a2 2 0 1 0 2 2 1.95 1.95 0 0 0-.07-.498l3.038-3.037-1.414-1.415z"/></svg>