<svg xmlns="http://www.w3.org/2000/svg" width="36" height="36" viewBox="0 0 36 36">
    <g fill="none" fill-rule="evenodd">
        <g fill="#9E9E9E">
            <g>
                <g>
                    <path d="M16.398 23.026c-1.77 0-3.435-.69-4.687-1.942-2.585-2.583-2.585-6.79 0-9.374 1.252-1.252 2.916-1.942 4.687-1.942 1.77 0 3.436.69 4.687 1.942 2.585 2.585 2.585 6.79 0 9.374-1.251 1.253-2.916 1.942-4.687 1.942m11.19 3.438l-4.848-4.847c2.663-3.227 2.486-8.01-.532-11.029-1.604-1.604-3.707-2.406-5.81-2.406-2.103 0-4.205.802-5.809 2.406-3.21 3.209-3.21 8.41 0 11.62 1.604 1.603 3.706 2.405 5.81 2.405 1.854 0 3.707-.626 5.219-1.874l4.847 4.847c.154.155.357.232.56.232.204 0 .406-.077.562-.232.31-.31.31-.812 0-1.122" transform="translate(-125 -60) translate(123 56) translate(2 4)"/>
                </g>
            </g>
        </g>
    </g>
</svg>
