<svg xmlns="http://www.w3.org/2000/svg" width="16" height="16" viewBox="0 0 16 16" fill-rule="evenodd"><path d="M0 12.66V3.34A3.34 3.34 0 0 1 3.339 0h9.322A3.34 3.34 0 0 1 16 3.339v9.32A3.34 3.34 0 0 1 12.661 16H3.34A3.34 3.34 0 0 1 0 12.66z" fill="#fff"/><path d="M0 12.66V3.34A3.34 3.34 0 0 1 3.339 0h9.322A3.34 3.34 0 0 1 16 3.339v9.32A3.34 3.34 0 0 1 12.661 16H3.34A3.34 3.34 0 0 1 0 12.66zm1.167-9.32v9.32c.002 1.2.972 2.17 2.172 2.173h9.322c1.2-.002 2.17-.973 2.172-2.173V3.34c-.002-1.2-.972-2.17-2.172-2.172H3.34c-1.2.001-2.17.973-2.172 2.172h0zm10.167 8.068c-.58.485-1.324.778-2.136.778a3.34 3.34 0 0 1-3.333-3.261v-3.05H10.4v-1.18H5.865V2.628h-1.2v6.22a4.5 4.5 0 0 0 1.19 3.05c.827.904 2.012 1.473 3.333 1.473 1.056 0 2.026-.365 2.796-.972l-.66-.992z" fill="#000"/></svg>