<svg xmlns="http://www.w3.org/2000/svg" width="31.55" height="31.55" fill="#e94f33" viewBox="0 0 24 24">
<path d="M11.83 23.66C5.307 23.66 0 18.353 0 11.83S5.307 0 11.83 0s11.83 5.307 11.83 11.83-5.307 11.83-11.83 11.83zm0-22.66C5.858 1 1 5.858 1 11.83s4.858 10.83 10.83 10.83 10.83-4.858 10.83-10.83S17.802 1 11.83 1zM9.77 9.374c-.207 0-.4-.13-.472-.336-.58-1.665-1.503-1.858-2.15-1.858-.638 0-1.545.19-2.05 1.84-.08.265-.362.414-.624.332-.264-.08-.413-.36-.332-.624.644-2.106 1.99-2.548 3.007-2.548 1.01 0 2.362.44 3.09 2.53.09.26-.05.546-.31.636-.054.02-.11.028-.164.028m9.272 0c-.208 0-.4-.13-.473-.336-.58-1.665-1.503-1.858-2.15-1.858-.638 0-1.545.19-2.05 1.84-.08.265-.36.414-.624.332-.263-.08-.412-.36-.33-.624.644-2.106 1.99-2.548 3.007-2.548 1.01 0 2.364.44 3.09 2.53.09.26-.047.546-.308.636-.055.02-.11.028-.165.028M11.72 20.858c-4.46 0-7.53-2.643-9.123-7.85-.08-.265.068-.545.332-.625.26-.083.54.068.62.332 1.47 4.806 4.14 7.143 8.165 7.143 4.034 0 6.81-2.343 8.483-7.162.09-.26.374-.4.636-.307.26.084.398.37.307.63-1.804 5.2-4.976 7.834-9.427 7.834"></path>
</svg>