<svg xmlns="http://www.w3.org/2000/svg" width="36" height="36"  fill-rule="evenodd" viewBox="0 0 36 36"><rect x=".5" y=".5" width="35" height="35" rx="17.5" fill="#fff" stroke="#9e9e9e"/><path d="M21.905 9.074c-1.57 0-2.917.719-3.905 1.703-.988-.984-2.335-1.703-3.905-1.703-3.178 0-5.764 2.58-5.764 5.752 0 6.524 8.568 11.472 8.933 11.68l.736.419.736-.419c.365-.208 8.933-5.156 8.933-11.68 0-3.171-2.586-5.752-5.764-5.752m0 1.484a4.27 4.27 0 0 1 4.277 4.267c0 5.737-8.182 10.39-8.182 10.39s-8.182-4.653-8.182-10.39a4.27 4.27 0 0 1 4.277-4.267c1.748 0 3.243 1.291 3.905 2.783.662-1.492 2.157-2.783 3.905-2.783" fill="#000"/></svg>