<?xml version="1.0" encoding="UTF-8"?>
<svg width="24px" height="24px" viewBox="0 0 24 24" version="1.1" xmlns="http://www.w3.org/2000/svg" xmlns:xlink="http://www.w3.org/1999/xlink">
    <!-- Generator: Sketch 51.3 (57544) - http://www.bohemiancoding.com/sketch -->
    <title>24px-blog-icon</title>
    <desc>Created with Sketch.</desc>
    <defs></defs>
    <g id="24px-blog-icon" stroke="none" stroke-width="1" fill="none" fill-rule="evenodd">
        <g id="Group">
            <rect id="Rectangle-10" fill="#000000" x="0" y="0" width="24" height="24" rx="2"></rect>
            <g id="noun_Feed_3558585" transform="translate(4.000000, 4.000000)" fill="#FFFFFF" fill-rule="nonzero">
                <path d="M2,13 C0.8954305,13 0,13.8954305 0,15 C0,16.1045695 0.8954305,17 2,17 C3.1045695,17 4,16.1045695 4,15 C4,13.8954305 3.1045695,13 2,13 Z" id="Shape"></path>
                <path d="M1.56072645,6 C0.698761032,6 0,6.6993564 0,7.56205623 C0,8.42475607 0.698761032,9.12411247 1.56072645,9.12411247 C5.04559761,9.12582805 7.87166383,11.9501098 7.87854711,15.4379438 C7.87854711,16.3006436 8.57730814,17 9.43927355,17 C10.301239,17 11,16.3006436 11,15.4379438 C10.9913956,10.2254239 6.76881486,6.00343805 1.56072645,6 Z" id="Shape"></path>
                <path d="M1.47398844,0 C0.659927103,0 0,0.659927103 0,1.47398844 C0,2.28804978 0.659927103,2.94797688 1.47398844,2.94797688 C8.41660569,2.9577194 14.0422806,8.58339431 14.0520231,15.5260116 C14.0520231,16.3400729 14.7119502,17 15.5260116,17 C16.3400729,17 17,16.3400729 17,15.5260116 C16.9880922,6.95616938 10.0438306,0.0119078381 1.47398844,0 Z" id="Shape"></path>
            </g>
        </g>
    </g>
</svg>