<svg xmlns="http://www.w3.org/2000/svg" width="24" height="24"><path d="M24 0v24H0V0h24zm-1.98 13H1.98v9H6v-7h12v7h4.02v-9zm-6 4H13v5h3.03v-5zm-5 0H7.98v5h3.03v-5zm11-15H1.98v9h20.04V2zM10.425 4.5c1.187 0 2.083.916 2.083 2.13h0v.4h-3.45c.134.7.718 1.175 1.5 1.175.333 0 .963-.085 1.44-.667h0l.267-.325v1.04l-.055.045a2.58 2.58 0 0 1-1.667.601c-1.307 0-2.256-.922-2.256-2.193 0-1.326.86-2.216 2.138-2.216zm7.3-.41v.503h2.325v.693h-2.325v1.508c0 .983.37 1.42 1.2 1.42.398 0 .742-.128.97-.363h0l.257-.265v.92l-.054.046c-.282.232-.704.355-1.22.355-1.206 0-1.87-.73-1.87-2.052h0V4.09h.718zM5.948 4.5c1.206 0 1.926.77 1.926 2.06h0v2.255h-.7V6.56c0-1.234-.862-1.367-1.232-1.367-.55 0-1.07.31-1.366.81h0v2.813H3.85v-4.22h.717V5a2.13 2.13 0 0 1 1.382-.51zm7.35.093l.044.053 1.29 1.502 1.322-1.555h.933L15.085 6.67l1.85 2.146h-.946L14.6 7.19l-1.36 1.624h-.93l1.84-2.146-1.786-2.076h.946zm-2.882.6c-.72 0-1.23.437-1.36 1.152h2.675c-.114-.676-.645-1.152-1.316-1.152z" fill="#000" fill-rule="evenodd"/></svg>