<svg xmlns="http://www.w3.org/2000/svg" width="20" height="20" viewBox="0 0 20 20"><path d="M5.09 6.727c0-2.707 2.202-4.91 4.91-4.91s4.91 2.202 4.91 4.91-2.202 4.91-4.91 4.91-4.91-2.202-4.91-4.91m9.654 4.5a6.52 6.52 0 0 0 1.801-4.501c0-3.615-2.93-6.545-6.545-6.545s-6.545 2.93-6.545 6.545a6.52 6.52 0 0 0 1.801 4.501c-3.022 1.676-5.074 4.896-5.074 8.6h1.636c0-3.323 1.996-6.186 4.85-7.465.977.58 2.114.92 3.332.92s2.356-.34 3.332-.92c2.854 1.28 4.85 4.142 4.85 7.465h1.636c0-3.694-2.052-6.914-5.074-8.6" fill="#fff" fill-rule="evenodd"/></svg>