<svg xmlns="http://www.w3.org/2000/svg" width="86" height="24" viewBox="0 0 86 24"><path d="M85.45 4.758V2.67H72.954V0h-2.237v13.9c0 6.595 3.25 10.1 9.245 10.1 2.45 0 4.602-.542 6.037-1.71v-2.546c-1.308 1.336-3.335 2.17-5.784 2.17-4.813 0-7.262-2.546-7.262-8.348V4.758H85.45zM49.607 2.67l7.557 8.682 7.473-8.682h2.87l-8.992 10.226L67.76 23.5h-2.956l-7.895-9.058-7.684 9.058h-2.87l9.204-10.602L46.652 2.67h2.955zM34.493 4.257c4.475 0 7.684 3.38 7.98 7.722H26.26c.464-4.717 3.63-7.722 8.233-7.722zm.042-2.087c5.91 0 10.386 4.508 10.386 10.52h0v1.378H26.26c.422 4.717 4.095 7.847 8.992 7.847 2.913 0 6.08-1.085 8.36-3.84h0v2.922A13.11 13.11 0 0 1 35.169 24c-6.375 0-11.314-4.3-11.314-10.852 0-6.637 4.348-10.978 10.68-10.978zm-24.065 0c4.813 0 9.542 2.505 9.542 10.143h0V23.5h-2.196V12.313c0-5.97-3.757-8.056-7.43-8.056-3.462 0-6.502 2.003-8.148 4.883h0V23.5H0V2.67h2.238v3.38C4.306 3.464 7.515 2.17 10.47 2.17z" fill="#b78b1f" fill-rule="evenodd"/></svg>
