
<svg xmlns="http://www.w3.org/2000/svg" width="20" height="20" viewBox="0 0 20 20"><path d="M18.04 18.344H1.595L.86 3.616h3.927A5.09 5.09 0 0 0 4.5 5.318v.753h.818v-.753c0-.605.124-1.178.335-1.702h8.33c.213.524.335 1.096.335 1.702v.753h.818v-.753a5.3 5.3 0 0 0-.278-1.702h3.92l-.736 14.727zM9.818.818c1.546 0 2.913.785 3.723 1.98H6.095c.81-1.195 2.177-1.98 3.723-1.98h0zm4.68 1.98C13.598 1.13 11.84 0 9.818 0s-3.78 1.13-4.68 2.798H0l.818 16.364h18l.818-16.364h-5.138z" fill="#000" fill-rule="evenodd"/></svg>