<svg xmlns="http://www.w3.org/2000/svg">
	<symbol viewBox="0 0 26 24" id="inactive">		
		<path fill-rule="evenodd" d="M18.25 0C16.139 0 14.328.967 13 2.29 11.672.967 9.861 0 7.75 0 3.477 0 0 3.47 0 7.733c0 8.772 11.519 15.424 12.01 15.703L13 24l.99-.564C14.481 23.156 26 16.505 26 7.733 26 3.469 22.523 0 18.25 0m0 1.996c3.18 0 5.75 2.564 5.75 5.737 0 7.713-11 13.97-11 13.97S2 15.445 2 7.732a5.738 5.738 0 015.75-5.737c2.35 0 4.36 1.736 5.25 3.741.89-2.005 2.9-3.741 5.25-3.741"></path>
	</symbol>
	<symbol viewBox="0 0 26 24" id="active">		
		<path fill-rule="evenodd" d="M13 2.29C11.672.967 9.861 0 7.75 0 3.477 0 0 3.47 0 7.733c0 8.772 11.519 15.424 12.01 15.703L13 24l.99-.564C14.481 23.156 26 16.505 26 7.733 26 3.469 22.523 0 18.25 0 16.139 0 14.328.967 13 2.29z"></path>
	</symbol>
	<symbol viewBox="0 0 26 24" id="loading">		
		<path stroke="#000" stroke-width="2" d="M14.633 2.205C15.681 1.458 16.922 1 18.25 1c1.866 0 3.553.753 4.774 1.97A6.71 6.71 0 0125 7.738c0 8.12-11.506 14.839-11.506 14.839s-.172.1-.487.27c-.324-.17-.501-.27-.501-.27s-5.064-2.883-8.44-7.17C2.294 13.154 1 10.526 1 7.737a6.71 6.71 0 011.976-4.766A6.735 6.735 0 017.75 1c1.328 0 2.57.458 3.617 1.205A7.638 7.638 0 0113 3.796a7.637 7.637 0 011.633-1.591z" fill="none" />
	</symbol>
</svg>