<svg
   xmlns:svg="http://www.w3.org/2000/svg"
   xmlns="http://www.w3.org/2000/svg"
   id="loadingFav"
   viewBox="0 0 26 24">
   <title>icon-path-favourite-loading</title>
  <style>
#loadingFav {
stroke-dasharray: 40;
stroke-dashoffset: 80;
stroke-linecap: round;
animation: favourite-loading 0.8s linear infinite reverse;
}
@keyframes favourite-loading {
0% {
stroke-dashoffset: 80;
}
100% {
stroke-dashoffset: 160;
}
}
</style>
  <path
  stroke="#000"
  stroke-width="2" 
  d="M14.633 2.205C15.681 1.458 16.922 1 18.25 1c1.866 0 3.553.753 4.774 1.97A6.71 6.71 0 0125 7.738c0 8.12-11.506 14.839-11.506 14.839s-.172.1-.487.27c-.324-.17-.501-.27-.501-.27s-5.064-2.883-8.44-7.17C2.294 13.154 1 10.526 1 7.737a6.71 6.71 0 011.976-4.766A6.735 6.735 0 017.75 1c1.328 0 2.57.458 3.617 1.205A7.638 7.638 0 0113 3.796a7.637 7.637 0 011.633-1.591z"
  fill="none" />
</svg>
