<svg width="36" height="36" xmlns="http://www.w3.org/2000/svg">
    <path d="M18 8.182c5.423 0 9.818 4.396 9.818 9.818S23.423 27.818 18 27.818c-5.422 0-9.818-4.396-9.818-9.818S12.578 8.182 18 8.182zm0 1.636c-4.511 0-8.182 3.67-8.182 8.182 0 4.511 3.67 8.182 8.182 8.182 4.511 0 8.182-3.67 8.182-8.182 0-4.511-3.67-8.182-8.182-8.182zm.818 12.273v1.636h-1.636v-1.636h1.636zM18 12.273a3.677 3.677 0 0 1 3.682 3.682 3.669 3.669 0 0 1-1.964 3.256c-.278.147-.58.262-.9.335v.909h-1.636v-2.627c.254.115.532.172.818.172.213 0 .417-.033.605-.09.074-.025.14-.05.213-.082a2.046 2.046 0 0 0-.818-3.92 2.04 2.04 0 0 0-1.84 1.163l-1.122-1.293A3.642 3.642 0 0 1 18 12.273z" fill="#000" fill-rule="evenodd"/>
</svg>
